<svg width="25" height="24" viewBox="0 0 25 24" fill="none" xmlns="http://www.w3.org/2000/svg">
<path d="M21.8367 6.95C21.1967 4.77999 19.3867 2.97 17.2167 2.33C15.5667 1.85 14.4267 1.89 13.6367 2.48C12.6867 3.19 12.5767 4.47 12.5767 5.38V7.87C12.5767 10.33 13.6967 11.58 15.8967 11.58H18.7667C19.6667 11.58 20.9567 11.47 21.6667 10.52C22.2767 9.74 22.3267 8.6 21.8367 6.95Z" fill="#386BF6"/>
<path d="M19.0764 13.36C18.8164 13.06 18.4364 12.89 18.0464 12.89H14.4664C12.7064 12.89 11.2764 11.46 11.2764 9.7V6.12C11.2764 5.73 11.1064 5.35 10.8064 5.09C10.5164 4.83 10.1164 4.71 9.7364 4.76C7.3864 5.06 5.2264 6.35 3.8164 8.29C2.3964 10.24 1.8764 12.62 2.3264 15C2.9764 18.44 5.7264 21.19 9.1764 21.84C9.7264 21.95 10.2764 22 10.8264 22C12.6364 22 14.3864 21.44 15.8764 20.35C17.8164 18.94 19.1064 16.78 19.4064 14.43C19.4564 14.04 19.3364 13.65 19.0764 13.36Z" fill="#386BF6"/>
</svg>
