<svg width="25" height="24" viewBox="0 0 25 24" fill="none" xmlns="http://www.w3.org/2000/svg">
<path d="M20.5402 6.82L14.7802 2.79C13.2102 1.69 10.8002 1.75 9.29023 2.92L4.28023 6.83C3.28023 7.61 2.49023 9.21 2.49023 10.47V17.37C2.49023 19.92 4.56023 22 7.11023 22H17.8902C20.4402 22 22.5102 19.93 22.5102 17.38V10.6C22.5102 9.25 21.6402 7.59 20.5402 6.82ZM13.2502 18C13.2502 18.41 12.9102 18.75 12.5002 18.75C12.0902 18.75 11.7502 18.41 11.7502 18V15C11.7502 14.59 12.0902 14.25 12.5002 14.25C12.9102 14.25 13.2502 14.59 13.2502 15V18Z" fill="#386BF6"/>
</svg>
