<svg width="25" height="24" viewBox="0 0 25 24" fill="none" xmlns="http://www.w3.org/2000/svg">
<path d="M22.2834 13.64V14.64C22.2834 14.91 22.0734 15.13 21.7934 15.14H20.3334C19.8034 15.14 19.3234 14.75 19.2834 14.23C19.2534 13.92 19.3734 13.63 19.5734 13.43C19.7534 13.24 20.0034 13.14 20.2734 13.14H21.7834C22.0734 13.15 22.2834 13.37 22.2834 13.64Z" fill="#386BF6"/>
<path d="M18.8237 12.69C18.3237 13.18 18.0837 13.91 18.2837 14.67C18.5437 15.6 19.4537 16.19 20.4137 16.19H21.2837C21.8337 16.19 22.2837 16.64 22.2837 17.19V17.38C22.2837 19.45 20.5937 21.14 18.5237 21.14H7.04369C4.97369 21.14 3.28369 19.45 3.28369 17.38V10.65C3.28369 9.42001 3.87369 8.33001 4.78369 7.65001C5.41369 7.17001 6.19369 6.89001 7.04369 6.89001H18.5237C20.5937 6.89001 22.2837 8.58001 22.2837 10.65V11.09C22.2837 11.64 21.8337 12.09 21.2837 12.09H20.2637C19.7037 12.09 19.1937 12.31 18.8237 12.69Z" fill="#386BF6"/>
<path d="M17.0336 4.82C17.3036 5.09 17.0736 5.51 16.6936 5.51L9.01356 5.5C8.57356 5.5 8.34355 4.96 8.66355 4.65L10.2836 3.02C11.6536 1.66 13.8736 1.66 15.2436 3.02L16.9936 4.79C17.0036 4.8 17.0236 4.81 17.0336 4.82Z" fill="#386BF6"/>
</svg>
